<?xml version="1.0" encoding="UTF-8"?>
<svg id="Calque_2" data-name="Calque 2" xmlns="http://www.w3.org/2000/svg" viewBox="0 0 30.32 29.03">
  <defs>
    <style>
      .cls-1 {
        fill: #1d1d1b;
      }
    </style>
  </defs>
  <g id="Calque_1-2" data-name="Calque 1">
    <path class="cls-1" d="M15.16,2l4.07,8.24,9.09,1.32-6.58,6.41,1.55,9.06-8.13-4.28-8.13,4.28,1.55-9.06L2,11.56l9.09-1.32L15.16,2m0-2c-.76,0-1.46,.43-1.79,1.11l-3.6,7.3L1.71,9.58c-.75,.11-1.38,.64-1.61,1.36-.24,.72-.04,1.52,.51,2.05l5.83,5.68-1.38,8.02c-.13,.75,.18,1.51,.8,1.96,.35,.25,.76,.38,1.18,.38,.32,0,.64-.08,.93-.23l7.2-3.79,7.2,3.79c.29,.15,.61,.23,.93,.23,.41,0,.83-.13,1.18-.38,.62-.45,.92-1.21,.8-1.96l-1.38-8.02,5.83-5.68c.55-.53,.74-1.33,.51-2.05-.24-.72-.86-1.25-1.61-1.36l-8.05-1.17-3.6-7.3c-.34-.68-1.03-1.11-1.79-1.11h0Z"/>
  </g>
</svg>