<?xml version="1.0" encoding="UTF-8"?>
<svg id="Calque_2" data-name="Calque 2" xmlns="http://www.w3.org/2000/svg" viewBox="0 0 26 31">
  <defs>
    <style>
      .cls-1 {
        fill: #1d1d1b;
      }
    </style>
  </defs>
  <g id="Calque_1-2" data-name="Calque 1">
    <path class="cls-1" d="M24.5,4h-6.5V1.5c0-.83-.68-1.5-1.5-1.5h-7c-.83,0-1.5,.67-1.5,1.5v2.5H1.5c-.83,0-1.5,.67-1.5,1.5v2.5H2V29c0,1.1,.9,2,2,2H22c1.1,0,2-.9,2-2V8h2v-2.5c0-.83-.68-1.5-1.5-1.5ZM8,27h-2V11h2V27Zm4,0h-2V11h2V27Zm4,0h-2V11h2V27Zm4,0h-2V11h2V27ZM10,2.03h6v1.97h-6v-1.97Z"/>
  </g>
</svg>