<?xml version="1.0" encoding="UTF-8"?>
<svg id="Calque_2" data-name="Calque 2" xmlns="http://www.w3.org/2000/svg" viewBox="0 0 32 30">
  <defs>
    <style>
      .cls-1 {
        fill: #1d1d1b;
      }
    </style>
  </defs>
  <g id="Calque_1-2" data-name="Calque 1">
    <path class="cls-1" d="M16,2c6,0,6,4.03,6,9,0,3.1-1.8,6.19-4,7.43v1.65c6.78,.55,12,3.89,12,7.92H2c0-4.03,5.22-7.36,12-7.92v-1.65c-2.2-1.24-4-4.34-4-7.43,0-4.97,0-9,6-9m0-2C8,0,8,6.1,8,11c0,2.72,1.16,5.55,2.94,7.49C4.46,19.8,0,23.55,0,28c0,1.1,.9,2,2,2H30c1.1,0,2-.9,2-2,0-4.45-4.46-8.2-10.94-9.51,1.78-1.95,2.94-4.77,2.94-7.49,0-4.9,0-11-8-11h0Z"/>
  </g>
</svg>