<?xml version="1.0" encoding="UTF-8"?>
<svg id="Calque_2" data-name="Calque 2" xmlns="http://www.w3.org/2000/svg" viewBox="0 0 32 30">
  <defs>
    <style>
      .cls-1 {
        fill: #1d1d1b;
      }
    </style>
  </defs>
  <g id="Calque_1-2" data-name="Calque 1">
    <g>
      <path class="cls-1" d="M29.56,.44c-.59-.59-1.54-.59-2.12,0l-6.32,6.32c-1.62-.49-3.34-.76-5.12-.76C9.02,6,2.97,10.06,0,16c1.29,2.57,3.15,4.78,5.41,6.47L.44,27.44c-.59,.59-.59,1.54,0,2.12,.29,.29,.68,.44,1.06,.44s.77-.15,1.06-.44L29.56,2.56c.59-.59,.59-1.54,0-2.12ZM7.56,20.32c-1.64-1.15-3.04-2.62-4.11-4.32,1.2-1.89,2.79-3.5,4.67-4.7,.12-.08,.25-.15,.37-.23-.31,.85-.48,1.78-.48,2.74,0,1.72,.54,3.3,1.46,4.61l-1.9,1.9Zm4.48-4.48c-1.18-.4-2.04-1.52-2.04-2.84,0-1.66,1.34-3,3-3,1.32,0,2.44,.85,2.84,2.04l-3.8,3.8Z"/>
      <path class="cls-1" d="M24,13.81c0-.85-.13-1.67-.38-2.43l-10.06,10.06c.77,.25,1.59,.38,2.43,.38,4.42,0,8-3.58,8-8Z"/>
      <path class="cls-1" d="M25.94,9.06l-2.17,2.17s.08,.05,.12,.07c1.88,1.2,3.47,2.81,4.67,4.7-1.2,1.89-2.79,3.5-4.67,4.7-2.36,1.51-5.09,2.3-7.89,2.3-1.21,0-2.4-.15-3.56-.44l-2.4,2.4c1.87,.67,3.87,1.04,5.96,1.04,6.98,0,13.03-4.06,16-10-1.41-2.81-3.5-5.2-6.06-6.94Z"/>
    </g>
  </g>
</svg>