<?xml version="1.0" encoding="UTF-8"?>
<svg id="Calque_2" data-name="Calque 2" xmlns="http://www.w3.org/2000/svg" viewBox="0 0 28 31.63">
  <defs>
    <style>
      .cls-1 {
        fill: #1d1d1b;
      }
    </style>
  </defs>
  <g id="Calque_1-2" data-name="Calque 1">
    <path class="cls-1" d="M22.11,9.63c.57-.4,1.11-.85,1.61-1.35,1.04-1.04,1.74-2.33,1.97-3.62,.25-1.41-.11-2.72-.99-3.6-.7-.7-1.64-1.07-2.73-1.07-1.55,0-3.19,.74-4.48,2.04-2.08,2.08-3.29,4.94-3.94,6.99-.48-2.06-1.44-4.83-3.31-6.7-1-1-2.28-1.52-3.5-1.52-.99,0-1.93,.34-2.63,1.05-1.56,1.56-1.35,4.31,.47,6.13,.65,.65,1.41,1.19,2.21,1.64H0v8H2v14H26v-14h2V9.63h-5.89ZM6.16,6.4c-.49-.49-.81-1.13-.85-1.74-.02-.28,0-.82,.38-1.2,.32-.32,.74-.39,1.04-.39,.66,0,1.36,.31,1.9,.86,1.06,1.06,1.93,2.74,2.52,4.87,.02,.06,.03,.11,.05,.17-.06-.02-.11-.03-.17-.05-2.13-.59-3.81-1.46-4.87-2.52Zm5.84,23.23H4v-12H12v12Zm0-14H2v-4H12v4ZM19.07,3.63c.87-.87,1.95-1.38,2.89-1.38,.33,0,.8,.07,1.14,.41,.81,.81,.36,2.7-.98,4.03-1.37,1.37-3.22,2.32-4.83,2.94h-1.58c.58-1.8,1.63-4.26,3.36-5.99Zm4.93,25.99h-8v-12h8v12Zm2-14h-10v-4h10v4Z"/>
  </g>
</svg>