<?xml version="1.0" encoding="UTF-8"?>
<svg id="Calque_2" data-name="Calque 2" xmlns="http://www.w3.org/2000/svg" viewBox="0 0 32 32">
  <defs>
    <style>
      .cls-1 {
        fill: #1d1d1b;
      }
    </style>
  </defs>
  <g id="Calque_1-2" data-name="Calque 1">
    <path class="cls-1" d="M31.71,25.71s0,0,0,0l-9.71-9.71L31.71,6.29s0,0,0,0c.1-.1,.18-.23,.23-.36,.13-.36,.06-.77-.23-1.06L27.12,.29c-.29-.29-.7-.36-1.06-.23-.13,.05-.25,.12-.36,.23,0,0,0,0,0,0L16,10,6.29,.29h0c-.1-.1-.23-.18-.36-.23-.36-.13-.77-.06-1.06,.23L.29,4.88C0,5.16-.07,5.58,.06,5.94c.05,.13,.12,.25,.23,.36,0,0,0,0,0,0L10,16,.29,25.71s0,0,0,0c-.1,.1-.18,.23-.23,.36-.13,.36-.06,.77,.23,1.06l4.59,4.59c.29,.29,.7,.36,1.06,.23,.13-.05,.25-.12,.36-.23,0,0,0,0,0,0l9.71-9.71,9.71,9.71s0,0,0,0c.1,.1,.23,.18,.36,.23,.36,.13,.77,.06,1.06-.23l4.59-4.59c.29-.29,.36-.7,.23-1.06-.05-.13-.12-.25-.23-.36Z"/>
  </g>
</svg>