<?xml version="1.0" encoding="UTF-8"?>
<svg id="Calque_2" data-name="Calque 2" xmlns="http://www.w3.org/2000/svg" viewBox="0 0 32 30">
  <defs>
    <style>
      .cls-1 {
        fill: #1d1d1b;
      }
    </style>
  </defs>
  <g id="Calque_1-2" data-name="Calque 1">
    <path class="cls-1" d="M30.5,22h-.5v-6.5c0-1.93-1.57-3.5-3.5-3.5h-8.5v-4h.5c.83,0,1.5-.68,1.5-1.5V1.5c0-.83-.67-1.5-1.5-1.5h-5c-.82,0-1.5,.67-1.5,1.5V6.5c0,.82,.68,1.5,1.5,1.5h.5v4H5.5c-1.93,0-3.5,1.57-3.5,3.5v6.5h-.5c-.82,0-1.5,.67-1.5,1.5v5c0,.83,.68,1.5,1.5,1.5H6.5c.82,0,1.5-.67,1.5-1.5v-5c0-.83-.68-1.5-1.5-1.5h-.5v-6H14v6h-.5c-.82,0-1.5,.67-1.5,1.5v5c0,.83,.68,1.5,1.5,1.5h5c.83,0,1.5-.67,1.5-1.5v-5c0-.83-.67-1.5-1.5-1.5h-.5v-6h8v6h-.5c-.83,0-1.5,.67-1.5,1.5v5c0,.83,.67,1.5,1.5,1.5h5c.83,0,1.5-.67,1.5-1.5v-5c0-.83-.67-1.5-1.5-1.5ZM6,28H2v-4H6v4Zm12,0h-4v-4h4v4ZM14,6V2h4V6h-4ZM30,28h-4v-4h4v4Z"/>
  </g>
</svg>