<?xml version="1.0" encoding="UTF-8"?>
<svg id="Calque_2" data-name="Calque 2" xmlns="http://www.w3.org/2000/svg" viewBox="0 0 32 29.99">
  <defs>
    <style>
      .cls-1 {
        fill: #1d1d1b;
      }
    </style>
  </defs>
  <g id="Calque_1-2" data-name="Calque 1">
    <g>
      <path class="cls-1" d="M16,0C7.16,0,0,5.82,0,13c0,4.08,2.31,7.72,5.93,10.1,.04,.29,.07,.59,.07,.9,0,2.18-1.86,4.1-4,5.14v.84c3.97-.09,8.07-.71,11.51-4.14,.81,.1,1.65,.16,2.49,.16,8.84,0,16-5.82,16-13S24.84,0,16,0Zm0,23c-.71,0-1.42-.04-2.12-.13-.13-.02-.25-.02-.38-.02-.79,0-1.56,.31-2.12,.88-.81,.81-1.67,1.42-2.58,1.89,.13-.53,.19-1.07,.19-1.61,0-.44-.03-.9-.1-1.34-.13-.84-.61-1.59-1.32-2.06-2.91-1.92-4.58-4.69-4.58-7.6C3,7.49,8.83,3,16,3s13,4.49,13,10-5.83,10-13,10Z"/>
      <path class="cls-1" d="M17.9,17.11c-.41-.31-.86-.43-1.38-.36s-.92,.31-1.23,.71c-.31,.41-.43,.86-.36,1.37,.07,.51,.31,.91,.71,1.22,.41,.31,.86,.43,1.38,.36,.51-.07,.92-.31,1.23-.72,.31-.41,.43-.87,.36-1.37-.07-.51-.31-.92-.71-1.23Z"/>
      <path class="cls-1" d="M18.65,6.1c-.83-.49-1.94-.65-3.3-.46-1.07,.15-2.03,.5-2.89,1.06-.86,.56-1.48,1.23-1.88,2.02l1.73,1.7c.36-.58,.82-1.08,1.39-1.48,.57-.4,1.17-.64,1.8-.73,.52-.07,.93-.02,1.23,.15,.3,.17,.48,.46,.54,.85,.05,.35,0,.7-.16,1.04-.15,.34-.39,.65-.72,.94-.61,.54-1.05,1.07-1.31,1.6-.26,.53-.34,1.15-.25,1.84l.12,.85,2.64-.36-.05-.37c-.06-.42-.03-.78,.09-1.09,.12-.31,.32-.59,.62-.85,.74-.63,1.26-1.31,1.57-2.03,.31-.72,.41-1.49,.29-2.31-.15-1.08-.64-1.87-1.48-2.36Z"/>
    </g>
  </g>
</svg>