<?xml version="1.0" encoding="UTF-8"?>
<svg id="Calque_2" data-name="Calque 2" xmlns="http://www.w3.org/2000/svg" viewBox="0 0 44 34">
  <defs>
    <style>
      .cls-1 {
        fill: #1d1d1b;
      }
    </style>
  </defs>
  <g id="Calque_1-2" data-name="Calque 1">
    <path class="cls-1" d="M33.06,22.49c1.78-1.95,2.94-4.77,2.94-7.49,0-4.9,0-11-8-11-.05,0-.09,0-.14,0-1.18-1.22-3-2.01-5.86-2.01-.05,0-.09,0-.14,0-1.18-1.22-3-2.01-5.86-2.01C8,0,8,6.1,8,11c0,2.72,1.16,5.55,2.94,7.49C4.46,19.8,0,23.55,0,28c0,1.1,.9,2,2,2H6c0,1.1,.9,2,2,2h4c0,1.1,.9,2,2,2h28c1.1,0,2-.9,2-2,0-4.45-4.46-8.2-10.94-9.51ZM6.32,28H2c0-4.03,5.22-7.36,12-7.92v-1.65c-2.2-1.24-4-4.34-4-7.43,0-4.97,0-9,6-9,1.16,0,2.08,.15,2.84,.43-4.82,1.45-4.84,6.43-4.84,10.57,0,2.72,1.16,5.55,2.94,7.49-5.48,1.11-9.51,3.96-10.62,7.51Zm6.97,0c-.43,.63-.76,1.3-.97,2h-4.32c0-.69,.16-1.36,.45-2,1.39-3.09,5.93-5.46,11.55-5.92v-1.65c-.06-.03-.12-.08-.18-.12-.66-.41-1.28-.98-1.82-1.67-1.19-1.52-2-3.57-2-5.64,0-4.65,0-8.48,4.93-8.95,.33-.03,.69-.05,1.07-.05,.42,0,.8,.02,1.16,.06,.64,.07,1.2,.19,1.68,.37-.5,.15-.97,.33-1.37,.55-.7,.39-1.26,.88-1.7,1.45-1.75,2.23-1.77,5.61-1.77,8.57,0,.49,.05,.99,.12,1.49,.22,1.47,.74,2.91,1.48,4.18,.39,.66,.83,1.28,1.33,1.83-4.41,.89-7.87,2.91-9.65,5.51Zm22.71,4H14c0-.69,.16-1.36,.45-2,.32-.71,.8-1.38,1.43-2,2.1-2.08,5.79-3.56,10.12-3.92v-1.65c-.06-.03-.12-.08-.18-.12-.02-.01-.05-.03-.07-.05-.64-.41-1.23-.96-1.75-1.63-.39-.5-.74-1.06-1.04-1.67-.31-.64-.56-1.33-.72-2.04-.15-.63-.24-1.28-.24-1.93,0-3.37,0-6.29,1.87-7.84,.71-.59,1.69-.98,3.06-1.11,.33-.03,.69-.05,1.07-.05,.42,0,.8,.02,1.16,.06,4.83,.51,4.84,4.31,4.84,8.94,0,2.6-1.28,5.2-2.99,6.7-.32,.28-.66,.54-1.01,.74v1.65c.28,.02,.55,.06,.82,.09,.34,.04,.68,.09,1.02,.14,1.68,.27,3.23,.72,4.59,1.31,3.38,1.46,5.58,3.77,5.58,6.38h-6Z"/>
  </g>
</svg>