<?xml version="1.0" encoding="UTF-8"?>
<svg id="Calque_2" data-name="Calque 2" xmlns="http://www.w3.org/2000/svg" viewBox="0 0 27.78 32">
  <defs>
    <style>
      .cls-1 {
        fill: #1d1d1b;
      }
    </style>
  </defs>
  <g id="Calque_1-2" data-name="Calque 1">
    <path class="cls-1" d="M7.82,32c-2.13-4.44-1-6.98,.64-9.38,1.8-2.62,2.26-5.22,2.26-5.22,0,0,1.41,1.83,.85,4.7,2.49-2.77,2.96-7.2,2.59-8.89,5.63,3.94,8.04,12.46,4.8,18.78,17.26-9.77,4.29-24.38,2.04-26.03,.75,1.65,.9,4.43-.62,5.79C17.79,2,11.43,0,11.43,0c.75,5.03-2.73,10.54-6.08,14.65-.12-2.01-.24-3.39-1.3-5.31-.24,3.65-3.02,6.62-3.78,10.27-1.02,4.95,.77,8.57,7.55,12.39Z"/>
  </g>
</svg>