<?xml version="1.0" encoding="UTF-8"?>
<svg id="Calque_2" data-name="Calque 2" xmlns="http://www.w3.org/2000/svg" viewBox="0 0 32 20">
  <defs>
    <style>
      .cls-1 {
        fill: #1d1d1b;
      }
    </style>
  </defs>
  <g id="Calque_1-2" data-name="Calque 1">
    <path class="cls-1" d="M16,0C9.02,0,2.97,4.06,0,10c2.97,5.94,9.02,10,16,10s13.03-4.06,16-10C29.03,4.06,22.98,0,16,0Zm7.89,5.3c1.88,1.2,3.47,2.81,4.67,4.7-1.2,1.89-2.79,3.5-4.67,4.7-2.36,1.51-5.09,2.3-7.89,2.3s-5.53-.8-7.89-2.3c-1.88-1.2-3.47-2.81-4.67-4.7,1.2-1.89,2.79-3.5,4.67-4.7,.12-.08,.25-.15,.37-.23-.31,.85-.48,1.78-.48,2.74,0,4.42,3.58,8,8,8s8-3.58,8-8c0-.96-.17-1.88-.48-2.74,.12,.07,.25,.15,.37,.23h0Zm-7.89,1.7c0,1.66-1.34,3-3,3s-3-1.34-3-3,1.34-3,3-3,3,1.34,3,3Z"/>
  </g>
</svg>